<?xml version="1.0" standalone="no"?>
<!DOCTYPE svg PUBLIC "-//W3C//DTD SVG 20010904//EN"
 "http://www.w3.org/TR/2001/REC-SVG-20010904/DTD/svg10.dtd">
<svg version="1.0" xmlns="http://www.w3.org/2000/svg"
 width="270.000000pt" height="110.000000pt" viewBox="0 0 270.000000 110.000000"
 preserveAspectRatio="xMidYMid meet">

<g transform="translate(0.000000,110.000000) scale(0.100000,-0.100000)"
fill="#000000" stroke="none">
<path d="M177 1013 c-4 -3 -7 -10 -7 -15 0 -4 549 -8 1220 -8 l1220 0 0 -450
0 -450 -1225 0 -1225 0 0 450 c0 293 -3 450 -10 450 -7 0 -10 -162 -10 -465
l0 -465 1245 0 1245 0 0 480 0 480 -1223 0 c-673 0 -1227 -3 -1230 -7z"/>
<path d="M230 540 l0 -390 625 0 625 0 0 390 0 390 -625 0 -625 0 0 -390z
m775 136 c70 -29 98 -132 55 -201 -19 -31 -80 -65 -115 -65 -8 0 -33 7 -55 16
-50 20 -80 67 -80 125 0 105 96 166 195 125z m339 0 c31 -13 66 -49 66 -68 0
-5 -9 -8 -20 -8 -11 0 -20 4 -20 10 0 15 -56 40 -89 40 -17 0 -42 -10 -58 -24
-24 -21 -28 -32 -28 -75 0 -62 24 -90 82 -98 32 -4 44 -1 71 22 47 40 42 55
-18 55 -38 0 -50 4 -50 15 0 12 14 15 70 15 64 0 70 -2 70 -21 0 -43 -31 -88
-75 -109 -158 -76 -272 149 -122 240 38 23 75 25 121 6z m-876 -12 c24 -17 31
-71 11 -91 -8 -8 -7 -17 5 -34 24 -35 20 -74 -10 -98 -21 -17 -41 -21 -95 -21
l-69 0 0 130 0 130 68 0 c45 0 75 -5 90 -16z m152 -99 l0 -115 65 0 c51 0 65
-3 65 -15 0 -12 -16 -15 -80 -15 l-80 0 0 130 c0 109 2 130 15 130 12 0 15
-19 15 -115z"/>
<path d="M895 638 c-34 -19 -44 -41 -45 -90 0 -40 4 -50 31 -72 67 -57 159
-13 159 76 0 24 -6 50 -13 59 -28 37 -92 50 -132 27z"/>
<path d="M340 610 l0 -40 44 0 c42 0 76 18 76 40 0 22 -34 40 -76 40 l-44 0 0
-40z"/>
<path d="M340 495 l0 -45 41 0 c53 0 79 15 79 45 0 30 -26 45 -79 45 l-41 0 0
-45z"/>
<path d="M2423 669 c-74 -21 -83 -107 -15 -136 92 -38 101 -47 70 -66 -13 -9
-21 -7 -36 6 -25 23 -87 24 -78 1 3 -9 6 -20 6 -25 0 -17 59 -39 105 -39 82 0
124 72 71 125 -13 13 -40 27 -60 30 -38 8 -62 28 -51 45 9 15 41 12 55 -5 7
-8 26 -15 42 -15 24 0 29 4 26 21 -6 44 -77 74 -135 58z"/>
<path d="M1560 540 l0 -130 35 0 35 0 0 130 0 130 -35 0 -35 0 0 -130z"/>
<path d="M1690 540 l0 -130 90 0 90 0 0 30 c0 30 -1 30 -55 30 -48 0 -55 3
-55 19 0 17 8 20 48 23 43 3 47 5 50 31 3 26 2 27 -47 27 -44 0 -51 3 -51 19
0 17 8 20 53 23 48 3 52 5 55 31 l3 27 -90 0 -91 0 0 -130z"/>
<path d="M1920 540 l0 -130 90 0 90 0 0 30 c0 30 -1 30 -55 30 -48 0 -55 3
-55 19 0 17 8 20 48 23 43 3 47 5 50 31 3 26 2 27 -47 27 -44 0 -51 3 -51 19
0 17 8 20 53 23 48 3 52 5 55 31 l3 27 -90 0 -91 0 0 -130z"/>
<path d="M2150 540 l0 -130 90 0 90 0 0 30 c0 30 -1 30 -55 30 -48 0 -55 2
-55 20 0 17 7 20 45 20 43 0 45 1 45 30 0 29 -2 30 -45 30 -38 0 -45 3 -45 20
0 17 7 20 50 20 49 0 50 1 50 30 l0 30 -85 0 -85 0 0 -130z"/>
</g>
</svg>
